<svg xmlns="http://www.w3.org/2000/svg" xmlns:xlink="http://www.w3.org/1999/xlink" width="145" height="238" version="1.1" viewBox="0 0 145 238"><title>Group</title><desc>Created with Sketch.</desc><g id="Page-1" fill="none" fill-rule="evenodd" stroke="none" stroke-width="1" opacity=".9"><g id="background2" fill-rule="nonzero" transform="translate(72.500000, 119.000000) scale(-1, 1) translate(-72.500000, -119.000000)"><g id="Page-1"><g id="background" transform="translate(72.500000, 119.000000) scale(-1, 1) translate(-72.500000, -119.000000)"><g id="Group"><polygon id="Shape" fill="#01FEFE" fill-opacity=".38" points="10.55 1.335 12.282 .335 13.282 2.067 11.55 3.067"/><polygon id="Shape" fill="#01FEFE" fill-opacity=".38" points="18.746 3.531 20.478 2.531 21.478 4.263 19.746 5.263"/><polygon id="Shape" fill="#01FEFE" fill-opacity=".38" points="26.942 5.727 28.674 4.727 29.674 6.459 27.942 7.459"/><polygon id="Shape" fill="#01FEFE" fill-opacity=".38" points="35.139 7.923 36.871 6.923 37.871 8.655 36.139 9.655"/><polygon id="Shape" fill="#01FEFE" fill-opacity=".38" points="43.335 10.119 45.067 9.119 46.067 10.852 44.335 11.852"/><polygon id="Shape" fill="#01FEFE" fill-opacity=".38" points="51.53 12.316 53.262 11.316 54.262 13.048 52.53 14.048"/><polygon id="Shape" fill="#01FEFE" fill-opacity=".38" points="59.727 14.512 61.459 13.512 62.459 15.244 60.727 16.244"/><polygon id="Shape" fill="#01FEFE" fill-opacity=".38" points=".157 7.335 1.889 6.335 2.889 8.067 1.157 9.067"/><polygon id="Shape" fill="#01FEFE" fill-opacity=".38" points="8.354 9.531 10.086 8.531 11.086 10.263 9.354 11.263"/><polygon id="Shape" fill="#01FEFE" fill-opacity=".38" points="16.55 11.727 18.282 10.727 19.282 12.459 17.55 13.459"/><polygon id="Shape" fill="#01FEFE" fill-opacity=".38" points="24.746 13.923 26.478 12.923 27.478 14.655 25.746 15.655"/><polygon id="Shape" fill="#01FEFE" fill-opacity=".38" points="32.942 16.119 34.675 15.119 35.675 16.852 33.942 17.852"/><polygon id="Shape" fill="#01FEFE" fill-opacity=".38" points="41.139 18.316 42.871 17.316 43.871 19.048 42.139 20.048"/><polygon id="Shape" fill="#01FEFE" fill-opacity=".38" points="49.335 20.512 51.067 19.512 52.067 21.244 50.335 22.244"/><polygon id="Shape" fill="#01FEFE" fill-opacity=".38" points="57.53 22.708 59.262 21.708 60.262 23.44 58.53 24.44"/><polygon id="Shape" fill="#01FEFE" fill-opacity=".38" points="6.157 17.727 7.889 16.727 8.889 18.459 7.157 19.459"/><polygon id="Shape" fill="#01FEFE" fill-opacity=".38" points="14.354 19.923 16.086 18.923 17.086 20.655 15.354 21.655"/><polygon id="Shape" fill="#01FEFE" fill-opacity=".38" points="22.55 22.119 24.282 21.119 25.282 22.852 23.55 23.852"/><polygon id="Shape" fill="#01FEFE" fill-opacity=".38" points="30.746 24.316 32.478 23.316 33.478 25.048 31.746 26.048"/><polygon id="Shape" fill="#01FEFE" fill-opacity=".38" points="38.942 26.512 40.675 25.512 41.675 27.244 39.942 28.244"/><polygon id="Shape" fill="#01FEFE" fill-opacity=".38" points="47.139 28.708 48.871 27.708 49.871 29.44 48.139 30.44"/><polygon id="Shape" fill="#01FEFE" fill-opacity=".38" points="55.335 30.904 57.067 29.904 58.067 31.636 56.335 32.636"/><polygon id="Shape" fill="#01FEFE" fill-opacity=".38" points="3.962 25.923 5.694 24.923 6.694 26.655 4.962 27.655"/><polygon id="Shape" fill="#01FEFE" fill-opacity=".38" points="12.157 28.119 13.889 27.119 14.889 28.852 13.157 29.852"/><polygon id="Shape" fill="#01FEFE" fill-opacity=".38" points="20.354 30.316 22.086 29.316 23.086 31.048 21.354 32.048"/><polygon id="Shape" fill="#01FEFE" fill-opacity=".38" points="28.55 32.512 30.282 31.512 31.282 33.244 29.55 34.244"/><polygon id="Shape" fill="#01FEFE" fill-opacity=".38" points="36.746 34.708 38.478 33.708 39.478 35.44 37.746 36.44"/><polygon id="Shape" fill="#01FEFE" fill-opacity=".38" points="44.942 36.904 46.675 35.904 47.675 37.636 45.942 38.636"/><polygon id="Shape" fill="#01FEFE" fill-opacity=".38" points="53.139 39.1 54.871 38.1 55.871 39.832 54.139 40.832"/><polygon id="Shape" fill="#01FEFE" fill-opacity=".38" points="1.766 34.119 3.498 33.119 4.498 34.852 2.766 35.852"/><polygon id="Shape" fill="#01FEFE" fill-opacity=".38" points="9.962 36.316 11.694 35.316 12.694 37.048 10.962 38.048"/><polygon id="Shape" fill="#01FEFE" fill-opacity=".38" points="18.157 38.512 19.889 37.512 20.889 39.244 19.157 40.244"/><polygon id="Shape" fill="#01FEFE" fill-opacity=".38" points="26.354 40.708 28.086 39.708 29.086 41.44 27.354 42.44"/><polygon id="Shape" fill="#01FEFE" fill-opacity=".38" points="34.55 42.904 36.282 41.904 37.282 43.636 35.55 44.636"/><polygon id="Shape" fill="#01FEFE" fill-opacity=".38" points="42.746 45.1 44.478 44.1 45.478 45.832 43.746 46.832"/><polygon id="Shape" fill="#01FEFE" fill-opacity=".38" points="50.942 47.296 52.675 46.296 53.675 48.029 51.942 49.029"/><polygon id="Shape" fill="#01FEFE" fill-opacity=".38" points="7.766 44.512 9.498 43.512 10.498 45.244 8.766 46.244"/><polygon id="Shape" fill="#01FEFE" fill-opacity=".38" points="15.961 46.708 17.693 45.708 18.693 47.44 16.961 48.44"/><polygon id="Shape" fill="#01FEFE" fill-opacity=".38" points="24.157 48.904 25.889 47.904 26.889 49.636 25.157 50.636"/><polygon id="Shape" fill="#01FEFE" fill-opacity=".38" points="32.353 51.1 34.086 50.1 35.086 51.832 33.353 52.832"/><polygon id="Shape" fill="#01FEFE" fill-opacity=".38" points="40.55 53.296 42.282 52.296 43.282 54.029 41.55 55.029"/><polygon id="Shape" fill="#01FEFE" fill-opacity=".38" points="48.746 55.493 50.478 54.493 51.478 56.225 49.746 57.225"/><polygon id="Shape" fill="#01FEFE" fill-opacity=".38" points="5.569 52.708 7.301 51.708 8.301 53.44 6.569 54.44"/><polygon id="Shape" fill="#01FEFE" fill-opacity=".38" points="13.765 54.904 15.497 53.904 16.497 55.636 14.765 56.636"/><polygon id="Shape" fill="#01FEFE" fill-opacity=".38" points="21.961 57.1 23.693 56.1 24.693 57.832 22.961 58.832"/><polygon id="Shape" fill="#01FEFE" fill-opacity=".38" points="30.157 59.296 31.889 58.296 32.889 60.029 31.157 61.029"/><polygon id="Shape" fill="#01FEFE" fill-opacity=".38" points="38.353 61.493 40.086 60.493 41.086 62.225 39.353 63.225"/><polygon id="Shape" fill="#01FEFE" fill-opacity=".38" points="46.55 63.689 48.282 62.689 49.282 64.421 47.55 65.421"/><polygon id="Shape" fill="#01FEFE" fill-opacity=".38" points="3.373 60.904 5.105 59.904 6.105 61.636 4.373 62.636"/><polygon id="Shape" fill="#01FEFE" fill-opacity=".38" points="11.569 63.1 13.301 62.1 14.301 63.832 12.569 64.832"/><polygon id="Shape" fill="#01FEFE" fill-opacity=".38" points="19.765 65.296 21.497 64.296 22.497 66.029 20.765 67.029"/><polygon id="Shape" fill="#01FEFE" fill-opacity=".38" points="27.961 67.493 29.693 66.493 30.693 68.225 28.961 69.225"/><polygon id="Shape" fill="#01FEFE" fill-opacity=".38" points="36.157 69.689 37.889 68.689 38.889 70.421 37.157 71.421"/><polygon id="Shape" fill="#01FEFE" fill-opacity=".38" points="44.353 71.885 46.086 70.885 47.086 72.617 45.353 73.617"/><polygon id="Shape" fill="#01FEFE" fill-opacity=".38" points="1.177 69.1 2.909 68.1 3.909 69.832 2.177 70.832"/><polygon id="Shape" fill="#01FEFE" fill-opacity=".38" points="9.373 71.296 11.105 70.296 12.105 72.029 10.373 73.029"/><polygon id="Shape" fill="#01FEFE" fill-opacity=".38" points="17.569 73.493 19.301 72.493 20.301 74.225 18.569 75.225"/><polygon id="Shape" fill="#01FEFE" fill-opacity=".38" points="25.765 75.689 27.497 74.689 28.497 76.421 26.765 77.421"/><polygon id="Shape" fill="#01FEFE" fill-opacity=".38" points="33.961 77.885 35.693 76.885 36.693 78.617 34.961 79.617"/><polygon id="Shape" fill="#01FEFE" fill-opacity=".38" points="42.157 80.081 43.889 79.081 44.889 80.813 43.157 81.813"/><polygon id="Shape" fill="#01FEFE" fill-opacity=".38" points="7.177 79.493 8.909 78.493 9.909 80.225 8.177 81.225"/><polygon id="Shape" fill="#01FEFE" fill-opacity=".38" points="15.373 81.689 17.105 80.689 18.105 82.421 16.373 83.421"/><polygon id="Shape" fill="#01FEFE" fill-opacity=".38" points="23.569 83.885 25.301 82.885 26.301 84.617 24.569 85.617"/><polygon id="Shape" fill="#01FEFE" fill-opacity=".38" points="31.765 86.081 33.497 85.081 34.497 86.813 32.765 87.813"/><polygon id="Shape" fill="#01FEFE" fill-opacity=".38" points="39.961 88.277 41.693 87.277 42.693 89.009 40.961 90.009"/><polygon id="Shape" fill="#01FEFE" fill-opacity=".38" points="4.98 87.689 6.713 86.689 7.713 88.421 5.98 89.421"/><polygon id="Shape" fill="#01FEFE" fill-opacity=".38" points="13.177 89.885 14.909 88.885 15.909 90.617 14.177 91.617"/><polygon id="Shape" fill="#01FEFE" fill-opacity=".38" points="21.373 92.081 23.105 91.081 24.105 92.813 22.373 93.813"/><polygon id="Shape" fill="#01FEFE" fill-opacity=".38" points="29.569 94.277 31.301 93.277 32.301 95.009 30.569 96.009"/><polygon id="Shape" fill="#01FEFE" fill-opacity=".38" points="37.766 96.473 39.498 95.473 40.498 97.205 38.766 98.205"/><polygon id="Shape" fill="#01FEFE" fill-opacity=".38" points="2.784 95.885 4.516 94.885 5.516 96.617 3.784 97.617"/><polygon id="Shape" fill="#01FEFE" fill-opacity=".38" points="10.98 98.081 12.713 97.081 13.713 98.813 11.98 99.813"/><polygon id="Shape" fill="#01FEFE" fill-opacity=".38" points="19.177 100.277 20.909 99.277 21.909 101.009 20.177 102.009"/><polygon id="Shape" fill="#01FEFE" fill-opacity=".38" points="27.373 102.473 29.105 101.473 30.105 103.205 28.373 104.205"/><polygon id="Shape" fill="#01FEFE" fill-opacity=".38" points="35.569 104.67 37.301 103.67 38.301 105.402 36.569 106.402"/><polygon id="Shape" fill="#01FEFE" fill-opacity=".38" points=".589 104.081 2.321 103.081 3.321 104.813 1.589 105.813"/><polygon id="Shape" fill="#01FEFE" fill-opacity=".38" points="8.784 106.277 10.516 105.277 11.516 107.009 9.784 108.009"/><polygon id="Shape" fill="#01FEFE" fill-opacity=".38" points="16.98 108.473 18.712 107.473 19.712 109.205 17.98 110.205"/><polygon id="Shape" fill="#01FEFE" fill-opacity=".38" points="25.177 110.67 26.909 109.67 27.909 111.402 26.177 112.402"/><polygon id="Shape" fill="#01FEFE" fill-opacity=".38" points="33.373 112.866 35.105 111.866 36.105 113.598 34.373 114.598"/><polygon id="Shape" fill="#01FEFE" fill-opacity=".38" points="6.589 114.473 8.321 113.473 9.321 115.205 7.589 116.205"/><polygon id="Shape" fill="#01FEFE" fill-opacity=".38" points="14.784 116.67 16.516 115.67 17.516 117.402 15.784 118.402"/><polygon id="Shape" fill="#01FEFE" fill-opacity=".38" points="22.98 118.866 24.712 117.866 25.712 119.598 23.98 120.598"/><polygon id="Shape" fill="#01FEFE" fill-opacity=".38" points="31.177 121.062 32.909 120.062 33.909 121.794 32.177 122.794"/><polygon id="Shape" fill="#01FEFE" fill-opacity=".38" points="4.393 122.67 6.125 121.67 7.125 123.402 5.393 124.402"/><polygon id="Shape" fill="#01FEFE" fill-opacity=".38" points="12.589 124.866 14.321 123.866 15.321 125.598 13.589 126.598"/><polygon id="Shape" fill="#01FEFE" fill-opacity=".38" points="20.784 127.062 22.516 126.062 23.516 127.794 21.784 128.794"/><polygon id="Shape" fill="#01FEFE" fill-opacity=".38" points="28.98 129.258 30.712 128.258 31.712 129.99 29.98 130.99"/><polygon id="Shape" fill="#01FEFE" fill-opacity=".38" points="2.196 130.866 3.928 129.866 4.928 131.598 3.196 132.598"/><polygon id="Shape" fill="#01FEFE" fill-opacity=".38" points="10.393 133.062 12.125 132.062 13.125 133.794 11.393 134.794"/><polygon id="Shape" fill="#01FEFE" fill-opacity=".38" points="18.589 135.258 20.321 134.258 21.321 135.99 19.589 136.99"/><polygon id="Shape" fill="#01FEFE" fill-opacity=".38" points="26.784 137.454 28.516 136.454 29.516 138.186 27.784 139.186"/><polygon id="Shape" fill="#01FEFE" fill-opacity=".38" points="0 139.062 1.732 138.062 2.732 139.794 1 140.794"/><polygon id="Shape" fill="#01FEFE" fill-opacity=".38" points="8.196 141.258 9.928 140.258 10.928 141.99 9.196 142.99"/><polygon id="Shape" fill="#01FEFE" fill-opacity=".38" points="16.393 143.454 18.125 142.454 19.125 144.186 17.393 145.186"/><polygon id="Shape" fill="#01FEFE" fill-opacity=".38" points="24.589 145.65 26.321 144.65 27.321 146.382 25.589 147.382"/><polygon id="Shape" fill="#01FEFE" fill-opacity=".38" points="6 149.454 7.732 148.454 8.732 150.186 7 151.186"/><polygon id="Shape" fill="#01FEFE" fill-opacity=".38" points="14.196 151.65 15.928 150.65 16.928 152.382 15.196 153.382"/><polygon id="Shape" fill="#01FEFE" fill-opacity=".38" points="22.393 153.846 24.125 152.846 25.125 154.578 23.393 155.578"/><polygon id="Shape" fill="#01FEFE" fill-opacity=".38" points="3.804 157.65 5.536 156.65 6.536 158.382 4.804 159.382"/><polygon id="Shape" fill="#01FEFE" fill-opacity=".38" points="12 159.846 13.732 158.846 14.732 160.578 13 161.578"/><polygon id="Shape" fill="#01FEFE" fill-opacity=".38" points="20.196 162.043 21.928 161.043 22.928 162.775 21.196 163.775"/><polygon id="Shape" fill="#01FEFE" fill-opacity=".38" points="1.607 165.846 3.339 164.846 4.339 166.578 2.607 167.578"/><polygon id="Shape" fill="#01FEFE" fill-opacity=".38" points="9.804 168.043 11.536 167.043 12.536 168.775 10.804 169.775"/><polygon id="Shape" fill="#01FEFE" fill-opacity=".38" points="18 170.239 19.732 169.239 20.732 170.971 19 171.971"/><polygon id="Shape" fill="#01FEFE" fill-opacity=".38" points="7.607 176.239 9.339 175.239 10.339 176.971 8.607 177.971"/><polygon id="Shape" fill="#01FEFE" fill-opacity=".38" points="15.804 178.435 17.536 177.435 18.536 179.167 16.804 180.167"/><polygon id="Shape" fill="#01FEFE" fill-opacity=".38" points="5.411 184.435 7.143 183.435 8.143 185.167 6.411 186.167"/><polygon id="Shape" fill="#01FEFE" fill-opacity=".38" points="13.607 186.631 15.339 185.631 16.34 187.363 14.607 188.363"/><polygon id="Shape" fill="#01FEFE" fill-opacity=".38" points="3.215 192.631 4.947 191.631 5.947 193.363 4.215 194.363"/><polygon id="Shape" fill="#01FEFE" fill-opacity=".38" points="11.411 194.827 13.143 193.827 14.143 195.559 12.411 196.559"/><polygon id="Shape" fill="#01FEFE" fill-opacity=".38" points="1.019 200.827 2.751 199.827 3.751 201.559 2.019 202.559"/><polygon id="Shape" fill="#01FEFE" fill-opacity=".38" points="9.215 203.023 10.947 202.023 11.947 203.755 10.215 204.755"/><polygon id="Shape" fill="#01FEFE" fill-opacity=".38" points="7.019 211.219 8.751 210.219 9.751 211.952 8.019 212.952"/><polygon id="Shape" fill="#01FEFE" fill-opacity=".38" points="4.823 219.416 6.555 218.416 7.555 220.148 5.823 221.148"/><polygon id="Shape" fill="#01FEFE" fill-opacity=".38" points="2.627 227.612 4.359 226.612 5.359 228.344 3.627 229.344"/><polygon id="Shape" fill="#01FEFE" fill-opacity=".38" points=".431 235.808 2.163 234.808 3.163 236.54 1.431 237.54"/><path id="Shape" fill="#535194" d="M76.1648,56.983 L77.8968,55.983 L78.8968,57.715 L77.1648,58.715 L76.1648,56.983 Z M84.3611,59.179 L86.093,58.179 L87.093,59.911 L85.3611,60.911 L84.3611,59.179 Z M94.2891,60.375 L92.5572,61.375 L93.5572,63.107 L95.2891,62.107 L94.2891,60.375 Z M100.7534,63.571 L102.485,62.571 L103.485,64.303 L101.7534,65.303 L100.7534,63.571 Z M110.681,64.768 L108.949,65.768 L109.949,67.5 L111.681,66.5 L110.681,64.768 Z M117.145,67.964 L118.877,66.964 L119.877,68.696 L118.145,69.696 L117.145,67.964 Z M127.074,69.16 L125.342,70.16 L126.342,71.892 L128.074,70.892 L127.074,69.16 Z M133.538,72.356 L135.27,71.356 L136.27,73.088 L134.538,74.088 L133.538,72.356 Z M143.466,73.552 L141.734,74.552 L142.734,76.284 L144.466,75.284 L143.466,73.552 Z M73.9688,65.179 L75.7007,64.179 L76.7007,65.911 L74.9688,66.911 L73.9688,65.179 Z M83.8968,66.375 L82.1648,67.375 L83.1648,69.107 L84.8968,68.107 L83.8968,66.375 Z M90.3611,69.571 L92.093,68.571 L93.093,70.303 L91.3611,71.303 L90.3611,69.571 Z M100.2891,70.768 L98.5572,71.768 L99.5572,73.5 L101.2891,72.5 L100.2891,70.768 Z M106.753,73.964 L108.485,72.964 L109.485,74.696 L107.753,75.696 L106.753,73.964 Z M116.681,75.16 L114.949,76.16 L115.949,77.892 L117.681,76.892 L116.681,75.16 Z M123.145,78.356 L124.877,77.356 L125.877,79.088 L124.145,80.088 L123.145,78.356 Z M133.074,79.552 L131.342,80.552 L132.342,82.284 L134.074,81.284 L133.074,79.552 Z M139.538,82.748 L141.27,81.748 L142.27,83.48 L140.538,84.48 L139.538,82.748 Z M73.5044,72.375 L71.7725,73.375 L72.7725,75.107 L74.5044,74.107 L73.5044,72.375 Z M79.9688,75.571 L81.7007,74.571 L82.7007,76.303 L80.9688,77.303 L79.9688,75.571 Z M89.8968,76.768 L88.1648,77.768 L89.1648,79.5 L90.8968,78.5 L89.8968,76.768 Z M96.3611,79.964 L98.093,78.964 L99.093,80.696 L97.3611,81.696 L96.3611,79.964 Z M106.289,81.16 L104.557,82.16 L105.557,83.892 L107.289,82.892 L106.289,81.16 Z M112.753,84.356 L114.485,83.356 L115.485,85.088 L113.753,86.088 L112.753,84.356 Z M122.681,85.552 L120.949,86.552 L121.949,88.284 L123.681,87.284 L122.681,85.552 Z M129.145,88.748 L130.877,87.748 L131.877,89.48 L130.145,90.48 L129.145,88.748 Z M139.074,89.944 L137.342,90.944 L138.342,92.676 L140.074,91.676 L139.074,89.944 Z M69.5764,81.571 L71.3084,80.571 L72.3084,82.303 L70.5764,83.303 L69.5764,81.571 Z M79.5044,82.768 L77.7725,83.768 L78.7725,85.5 L80.5044,84.5 L79.5044,82.768 Z M85.9688,85.964 L87.7007,84.964 L88.7007,86.696 L86.9688,87.696 L85.9688,85.964 Z M95.8968,87.16 L94.1648,88.16 L95.1648,89.892 L96.8968,88.892 L95.8968,87.16 Z M102.361,90.356 L104.093,89.356 L105.093,91.088 L103.361,92.088 L102.361,90.356 Z M112.289,91.552 L110.557,92.552 L111.557,94.284 L113.289,93.284 L112.289,91.552 Z M118.753,94.748 L120.485,93.748 L121.485,95.48 L119.753,96.48 L118.753,94.748 Z M128.681,95.944 L126.949,96.944 L127.949,98.676 L129.681,97.676 L128.681,95.944 Z M135.145,99.141 L136.877,98.141 L137.877,99.873 L136.145,100.873 L135.145,99.141 Z M69.1121,88.768 L67.3801,89.768 L68.3801,91.5 L70.1121,90.5 L69.1121,88.768 Z M75.5764,91.964 L77.3084,90.964 L78.3084,92.696 L76.5764,93.696 L75.5764,91.964 Z M85.5044,93.16 L83.7725,94.16 L84.7725,95.892 L86.5044,94.892 L85.5044,93.16 Z M91.9688,96.356 L93.7007,95.356 L94.7007,97.088 L92.9688,98.088 L91.9688,96.356 Z M101.8968,97.552 L100.1648,98.552 L101.1648,100.284 L102.897,99.284 L101.8968,97.552 Z M108.361,100.748 L110.093,99.748 L111.093,101.48 L109.361,102.48 L108.361,100.748 Z M118.289,101.944 L116.557,102.944 L117.557,104.676 L119.289,103.676 L118.289,101.944 Z M124.753,105.141 L126.485,104.141 L127.485,105.873 L125.753,106.873 L124.753,105.141 Z M134.681,106.337 L132.949,107.337 L133.949,109.069 L135.681,108.069 L134.681,106.337 Z M65.1841,97.964 L66.916,96.964 L67.916,98.696 L66.1841,99.696 L65.1841,97.964 Z M75.1121,99.16 L73.3801,100.16 L74.3801,101.892 L76.1121,100.892 L75.1121,99.16 Z M81.5764,102.356 L83.3084,101.356 L84.3084,103.088 L82.5764,104.088 L81.5764,102.356 Z M91.5044,103.552 L89.7725,104.552 L90.7725,106.284 L92.5044,105.284 L91.5044,103.552 Z M97.9688,106.748 L99.7007,105.748 L100.7007,107.48 L98.9688,108.48 L97.9688,106.748 Z M107.897,107.944 L106.165,108.944 L107.165,110.676 L108.897,109.676 L107.897,107.944 Z M114.361,111.141 L116.093,110.141 L117.093,111.873 L115.361,112.873 L114.361,111.141 Z M124.289,112.337 L122.557,113.337 L123.557,115.069 L125.289,114.069 L124.289,112.337 Z M130.753,115.533 L132.485,114.533 L133.485,116.265 L131.753,117.265 L130.753,115.533 Z M64.72,105.16 L62.9881,106.16 L63.9881,107.892 L65.72,106.892 L64.72,105.16 Z M71.1841,108.356 L72.916,107.356 L73.916,109.088 L72.1841,110.088 L71.1841,108.356 Z M81.1121,109.552 L79.3801,110.552 L80.3801,112.284 L82.1121,111.284 L81.1121,109.552 Z M87.5764,112.748 L89.3084,111.748 L90.3084,113.48 L88.5764,114.48 L87.5764,112.748 Z M97.5044,113.944 L95.7725,114.944 L96.7725,116.676 L98.5044,115.676 L97.5044,113.944 Z M103.969,117.141 L105.701,116.141 L106.701,117.873 L104.969,118.873 L103.969,117.141 Z M113.897,118.337 L112.165,119.337 L113.165,121.069 L114.897,120.069 L113.897,118.337 Z M120.361,121.533 L122.093,120.533 L123.093,122.265 L121.361,123.265 L120.361,121.533 Z M130.289,122.729 L128.557,123.729 L129.557,125.461 L131.289,124.461 L130.289,122.729 Z M60.7918,114.356 L62.5237,113.356 L63.5237,115.088 L61.7918,116.088 L60.7918,114.356 Z M70.72,115.552 L68.9881,116.552 L69.9881,118.284 L71.72,117.284 L70.72,115.552 Z M77.1841,118.748 L78.916,117.748 L79.916,119.48 L78.1841,120.48 L77.1841,118.748 Z M87.1121,119.944 L85.3801,120.944 L86.3802,122.676 L88.1121,121.676 L87.1121,119.944 Z M93.5764,123.141 L95.3084,122.141 L96.3084,123.873 L94.5764,124.873 L93.5764,123.141 Z M103.504,124.337 L101.7725,125.337 L102.772,127.069 L104.504,126.069 L103.504,124.337 Z M109.969,127.533 L111.701,126.533 L112.701,128.265 L110.969,129.265 L109.969,127.533 Z M119.897,128.729 L118.165,129.729 L119.165,131.461 L120.897,130.461 L119.897,128.729 Z M126.361,131.925 L128.093,130.925 L129.093,132.657 L127.361,133.657 L126.361,131.925 Z M60.3277,121.552 L58.5957,122.552 L59.5957,124.284 L61.3277,123.284 L60.3277,121.552 Z M66.7918,124.748 L68.5237,123.748 L69.5237,125.48 L67.7918,126.48 L66.7918,124.748 Z M76.72,125.944 L74.9881,126.944 L75.9881,128.676 L77.72,127.676 L76.72,125.944 Z M83.1841,129.141 L84.916,128.141 L85.916,129.873 L84.1841,130.873 L83.1841,129.141 Z M93.1121,130.337 L91.3801,131.337 L92.3801,133.069 L94.1121,132.069 L93.1121,130.337 Z M99.5764,133.533 L101.3084,132.533 L102.308,134.265 L100.5764,135.265 L99.5764,133.533 Z M109.504,134.729 L107.772,135.729 L108.772,137.461 L110.504,136.461 L109.504,134.729 Z M115.969,137.925 L117.701,136.925 L118.701,138.657 L116.969,139.657 L115.969,137.925 Z M125.897,139.121 L124.165,140.121 L125.165,141.853 L126.897,140.853 L125.897,139.121 Z"/></g></g></g></g></g></svg>